<?xml version="1.0" standalone="no"?>
<!DOCTYPE svg PUBLIC "-//W3C//DTD SVG 20010904//EN"
 "http://www.w3.org/TR/2001/REC-SVG-20010904/DTD/svg10.dtd">
<svg version="1.0" xmlns="http://www.w3.org/2000/svg"
 width="2330.000000pt" height="2330.000000pt" viewBox="0 0 2330.000000 2330.000000"
 preserveAspectRatio="xMidYMid meet">
<metadata>
Created by potrace 1.11, written by Peter Selinger 2001-2013
</metadata>
<g transform="translate(0.000000,2330.000000) scale(0.100000,-0.100000)"
fill="#000000" stroke="none">
<path d="M11507 20554 c-1 -1 -101 -4 -222 -8 -121 -4 -242 -8 -270 -11 -27
-2 -90 -6 -140 -10 -49 -3 -103 -8 -120 -10 -28 -4 -65 -8 -185 -21 -97 -10
-309 -39 -360 -49 -14 -3 -45 -7 -69 -10 -24 -3 -47 -7 -50 -9 -3 -2 -31 -7
-61 -11 -30 -4 -58 -9 -62 -11 -4 -3 -26 -7 -50 -10 -24 -3 -50 -8 -58 -10 -8
-3 -26 -8 -40 -10 -106 -18 -430 -97 -430 -105 0 -4 27 -51 60 -104 33 -53 60
-98 60 -101 0 -3 16 -30 35 -60 19 -30 35 -56 35 -57 0 -3 109 -185 142 -237
22 -35 249 -421 262 -445 6 -11 21 -34 34 -52 12 -17 22 -34 22 -36 0 -3 17
-34 39 -69 21 -35 89 -148 151 -253 62 -104 129 -217 150 -250 21 -33 91 -148
157 -255 66 -107 196 -319 290 -470 210 -341 216 -351 228 -372 14 -25 162
-263 200 -323 17 -27 143 -232 280 -455 136 -223 258 -421 270 -440 13 -19 47
-73 75 -120 29 -47 54 -86 55 -88 4 -4 151 -37 205 -46 19 -3 44 -8 55 -10 11
-2 76 -16 144 -31 742 -158 1345 -441 1861 -874 286 -239 514 -480 780 -826
68 -88 128 -166 135 -173 13 -15 26 -10 220 83 124 59 222 105 360 170 44 20
114 53 155 72 41 20 131 61 200 93 69 32 161 75 205 95 44 21 99 46 123 56 23
10 42 23 42 28 0 5 -20 44 -45 85 -25 42 -45 78 -45 80 0 6 -136 220 -193 306
-72 107 -178 247 -270 360 -118 143 -412 445 -551 565 -38 33 -74 65 -80 70
-73 68 -343 270 -511 382 -296 197 -649 387 -970 521 -82 35 -159 67 -170 72
-157 66 -695 236 -841 266 -12 2 -59 15 -105 28 -46 14 -138 38 -204 56 -66
17 -124 35 -128 39 -6 6 18 53 55 113 36 56 129 207 208 333 78 127 149 241
158 255 9 14 22 34 28 45 14 25 448 728 479 775 29 45 202 325 225 365 10 17
100 170 200 340 101 171 191 324 201 342 10 17 30 50 44 73 15 23 25 43 23 45
-13 13 -569 143 -728 170 -19 3 -84 15 -145 25 -60 11 -130 22 -155 25 -25 3
-56 8 -70 10 -14 3 -43 7 -65 10 -40 4 -100 11 -165 20 -19 3 -62 7 -95 10
-33 3 -75 7 -94 10 -36 4 -155 14 -251 20 -164 11 -646 25 -653 19z"/>
<path d="M8200 19871 c-228 -97 -278 -119 -477 -217 -150 -74 -490 -260 -616
-336 l-59 -36 35 -11 c30 -10 43 -26 95 -119 33 -59 204 -345 379 -637 308
-511 398 -659 706 -1162 78 -128 151 -248 162 -267 11 -19 68 -113 126 -208
58 -95 143 -234 188 -308 46 -74 93 -151 105 -170 13 -19 112 -181 221 -360
215 -354 376 -615 410 -670 13 -19 91 -147 175 -285 84 -137 181 -294 214
-348 34 -53 68 -109 77 -125 9 -15 130 -211 269 -437 139 -225 265 -429 279
-452 96 -156 331 -534 381 -613 33 -52 64 -104 70 -115 6 -11 42 -69 80 -130
38 -60 88 -141 112 -180 23 -38 61 -99 84 -135 23 -36 83 -132 134 -215 52
-82 121 -193 155 -245 33 -52 74 -117 90 -143 17 -27 40 -60 52 -75 21 -27 22
-27 37 -7 44 57 188 274 306 460 73 116 143 226 155 245 12 19 55 89 95 155
40 66 83 136 95 155 12 19 55 89 95 155 90 145 207 316 257 374 105 124 179
132 281 32 35 -34 211 -255 275 -344 86 -120 102 -164 101 -282 0 -162 -40
-258 -292 -705 -14 -25 -54 -92 -89 -149 -34 -57 -63 -105 -63 -107 0 -2 -37
-63 -82 -136 -44 -73 -112 -185 -151 -248 -38 -63 -80 -131 -92 -150 -12 -19
-93 -150 -180 -290 -180 -291 -218 -351 -261 -420 -18 -26 -58 -90 -89 -142
-119 -192 -346 -541 -369 -566 -10 -10 -15 -9 -28 5 -13 15 -174 256 -203 305
-9 16 -82 131 -160 253 -26 42 -138 219 -195 309 -8 13 -31 50 -50 81 -19 31
-42 68 -50 81 -8 13 -108 174 -222 356 -315 507 -495 803 -860 1408 -139 231
-273 459 -328 560 -35 63 -88 153 -118 200 -31 47 -60 94 -67 105 -6 11 -55
88 -109 170 -54 83 -127 193 -161 245 -55 83 -368 581 -420 667 -11 18 -43 70
-71 115 -230 375 -342 557 -347 569 -4 8 -15 26 -25 41 -54 86 -268 444 -270
455 -2 7 -8 13 -13 13 -5 0 -9 4 -9 10 0 5 -24 49 -53 97 -30 49 -65 109 -79
133 -29 52 -141 235 -318 521 -69 111 -132 214 -140 228 -24 41 -160 262 -185
301 -13 19 -72 114 -131 210 -59 96 -135 220 -169 275 -34 55 -124 201 -200
325 -76 124 -158 257 -182 295 -24 39 -83 133 -130 210 -48 77 -104 168 -126
202 l-39 62 -107 -87 c-390 -315 -858 -767 -1116 -1077 -27 -33 -52 -62 -56
-65 -8 -7 -157 -187 -189 -230 -14 -18 -30 -38 -35 -44 -38 -39 -279 -374
-390 -541 -117 -177 -295 -460 -295 -471 0 -2 -13 -25 -29 -51 -107 -176 -357
-683 -455 -923 -15 -36 -31 -74 -36 -85 -68 -146 -237 -632 -310 -890 -29
-102 -123 -468 -134 -525 -3 -14 -19 -95 -36 -180 -17 -85 -33 -173 -36 -195
-3 -22 -7 -46 -10 -54 -3 -8 -7 -30 -10 -50 -2 -20 -9 -67 -15 -106 -6 -38
-12 -81 -14 -95 -5 -31 -32 -259 -39 -320 -4 -42 -13 -139 -21 -240 -26 -328
-26 -1035 -1 -1290 2 -19 7 -73 10 -120 7 -85 12 -137 21 -217 3 -24 7 -64 10
-90 3 -27 8 -59 10 -73 3 -14 7 -47 10 -75 7 -59 13 -98 41 -255 3 -19 7 -47
9 -61 13 -98 81 -412 130 -604 20 -77 40 -156 45 -175 4 -19 22 -82 40 -140
17 -58 33 -112 35 -120 9 -38 131 -395 167 -489 73 -190 170 -424 214 -519 24
-52 44 -96 44 -98 0 -13 271 -543 291 -569 4 -5 22 -37 39 -70 18 -33 39 -67
46 -76 8 -8 14 -19 14 -22 0 -11 133 -225 239 -387 182 -277 453 -639 645
-861 182 -209 261 -294 466 -499 281 -282 495 -474 761 -682 19 -15 69 -54
111 -87 535 -420 1267 -844 1938 -1124 487 -204 917 -339 1515 -477 127 -29
503 -96 594 -106 31 -3 58 -7 61 -9 3 -2 71 -11 150 -19 80 -9 163 -18 185
-21 22 -2 76 -7 120 -11 44 -3 98 -7 120 -9 342 -29 1049 -24 1373 10 28 3 76
7 105 10 28 3 68 7 87 9 106 11 190 21 250 31 14 2 48 6 75 10 48 6 77 10 120
19 11 2 40 7 65 10 306 47 821 170 1160 278 225 71 545 186 637 228 24 11 46
20 49 20 3 0 20 6 37 14 18 8 106 46 197 86 693 303 1392 733 1990 1225 162
133 174 143 209 175 15 14 63 56 107 95 110 97 553 540 654 655 46 52 95 109
110 125 51 58 136 160 195 235 33 41 62 77 65 80 13 12 220 292 270 365 30 44
58 82 61 85 3 3 41 59 84 125 43 66 91 139 106 163 16 24 29 45 29 47 0 2 12
21 26 42 14 21 30 47 35 58 5 11 18 34 29 50 11 17 30 48 42 70 12 22 27 48
33 57 107 176 342 649 450 908 42 102 81 194 86 205 59 139 140 371 255 739
29 92 139 523 148 580 4 21 8 42 11 46 2 3 7 21 10 38 3 18 14 77 25 132 29
149 32 165 44 245 3 22 8 51 11 65 5 24 10 56 20 143 3 23 10 69 15 102 4 33
11 92 15 130 3 39 8 77 10 85 2 8 6 53 10 100 4 47 8 101 10 120 28 282 27
1159 0 1385 -3 17 -7 68 -11 115 -3 47 -7 92 -9 100 -1 8 -6 49 -10 90 -4 41
-9 82 -10 91 -2 9 -6 40 -10 70 -3 30 -10 79 -15 109 -5 30 -11 72 -14 93 -9
57 -17 107 -22 131 -2 11 -7 36 -10 55 -3 18 -8 43 -10 55 -4 19 -27 139 -40
206 -35 175 -127 533 -196 755 -196 636 -476 1274 -801 1825 -44 74 -85 144
-91 155 -13 23 -18 30 -151 235 -56 85 -121 183 -146 217 -24 33 -51 71 -59
83 -16 25 -213 286 -233 310 -7 8 -39 49 -72 90 -33 41 -62 77 -65 80 -3 3
-27 32 -55 65 -27 33 -64 76 -81 95 -17 19 -55 62 -85 95 -96 109 -152 168
-334 350 -208 208 -384 372 -505 471 -19 16 -37 31 -40 34 -3 3 -30 26 -60 52
l-56 47 -21 -32 c-12 -18 -83 -129 -158 -247 -76 -118 -145 -226 -154 -240 -8
-14 -20 -33 -26 -42 -13 -22 -313 -493 -414 -650 -42 -65 -100 -155 -129 -200
-28 -46 -79 -125 -112 -177 l-59 -94 67 -76 c37 -42 69 -78 72 -81 7 -6 210
-238 275 -314 28 -32 55 -64 60 -70 6 -6 27 -32 48 -58 21 -26 43 -53 50 -60
7 -7 35 -41 62 -76 28 -35 60 -75 73 -90 119 -139 377 -505 457 -647 261 -463
435 -833 505 -1075 29 -100 30 -135 2 -157 -18 -13 -854 -431 -1052 -526 -63
-30 -191 -92 -285 -137 -93 -45 -206 -99 -250 -120 -44 -21 -141 -67 -215
-103 -216 -103 -382 -182 -555 -262 -38 -18 -105 -49 -147 -69 -95 -44 -223
-103 -263 -121 -16 -7 -61 -28 -100 -45 -99 -45 -163 -70 -180 -70 -28 0 -124
171 -224 395 -119 266 -242 483 -316 558 -33 34 -37 43 -32 74 4 23 1 47 -10
67 -23 46 -263 281 -388 381 -27 22 -54 45 -60 51 -12 13 -206 162 -300 231
-270 196 -535 317 -890 407 -243 61 -383 76 -855 91 -126 4 -187 10 -193 18
-4 7 -17 29 -30 49 -12 20 -65 106 -117 190 -52 84 -97 157 -100 163 -3 5 -21
35 -40 66 -19 30 -40 64 -47 75 -13 20 -66 107 -94 153 -9 14 -105 170 -214
346 -109 176 -218 354 -243 395 -25 41 -60 98 -77 125 -18 28 -76 122 -130
210 -54 88 -115 187 -135 220 -123 196 -412 668 -509 830 -62 105 -118 199
-124 209 -7 11 -31 51 -54 88 -24 38 -43 70 -43 72 0 4 -129 221 -413 696 -44
74 -86 144 -92 155 -5 11 -18 31 -26 45 -16 24 -338 563 -383 641 -80 138
-112 189 -116 189 -3 0 -88 -36 -190 -79z m-1598 -3878 c102 -135 403 -644
485 -821 l34 -73 -42 -77 c-23 -42 -75 -128 -116 -192 -171 -265 -366 -721
-518 -1210 -23 -75 -94 -354 -101 -399 -3 -20 -7 -38 -9 -41 -3 -5 -38 -196
-50 -270 -3 -19 -7 -46 -10 -60 -3 -14 -7 -45 -10 -70 -3 -25 -7 -61 -10 -80
-5 -33 -12 -97 -20 -185 -23 -258 -24 -706 0 -930 13 -124 25 -225 30 -255 3
-14 7 -43 10 -65 6 -56 41 -247 60 -330 9 -38 18 -78 20 -88 30 -136 135 -492
165 -562 5 -11 25 -62 45 -113 19 -52 41 -108 49 -125 8 -18 27 -61 42 -97 29
-72 167 -354 215 -440 505 -908 1287 -1699 2169 -2194 250 -140 665 -324 905
-402 80 -25 240 -76 255 -80 44 -12 221 -56 255 -64 22 -4 51 -11 65 -14 89
-20 124 -27 200 -40 99 -18 269 -42 355 -51 33 -4 74 -8 90 -10 211 -26 729
-26 1000 0 83 8 198 22 244 29 14 3 62 10 106 16 297 43 766 169 1075 290 106
41 262 107 290 121 8 4 78 38 155 75 133 65 291 150 400 217 63 38 378 249
426 285 215 160 401 322 589 511 164 165 191 195 309 331 40 47 85 99 100 115
14 17 46 55 71 85 24 30 49 60 54 65 12 11 65 78 193 245 165 216 253 361 232
386 -17 21 -641 323 -909 439 -41 18 -109 48 -150 68 -138 64 -213 97 -220 97
-4 0 -31 -33 -60 -72 -155 -211 -201 -270 -269 -348 -120 -136 -334 -354 -440
-446 -24 -22 -56 -51 -71 -65 -15 -14 -76 -66 -136 -114 -60 -49 -111 -92
-114 -95 -9 -10 -185 -137 -245 -177 -312 -207 -823 -428 -1150 -499 -82 -17
-226 -44 -255 -48 -19 -2 -55 -7 -80 -10 -25 -3 -63 -8 -85 -11 -222 -27 -917
-28 -1075 -1 -14 3 -50 7 -81 10 -31 3 -78 10 -105 15 -27 5 -69 12 -94 16
-126 18 -390 85 -536 136 -84 29 -101 35 -156 59 -13 5 -52 21 -88 36 -287
116 -629 329 -932 580 -140 115 -428 395 -520 504 -228 270 -443 616 -593 955
-108 244 -216 557 -256 744 -6 25 -14 62 -18 81 -10 39 -38 178 -46 228 -11
69 -14 89 -20 147 -4 33 -9 74 -11 90 -21 183 -21 450 1 630 2 17 6 57 10 90
3 33 8 67 10 75 2 8 7 35 10 60 3 25 8 57 11 72 3 15 7 39 9 55 11 83 73 369
111 513 55 212 127 360 175 360 33 0 107 -89 226 -274 64 -100 135 -210 158
-246 223 -345 277 -508 300 -915 7 -123 14 -229 20 -295 12 -135 17 -187 20
-210 2 -14 9 -63 15 -110 6 -47 16 -105 22 -130 5 -25 11 -52 13 -60 18 -85
97 -332 114 -355 4 -5 20 -41 36 -80 32 -77 114 -239 151 -297 13 -21 24 -42
24 -48 0 -5 5 -10 10 -10 6 0 10 -5 10 -10 0 -18 118 -189 218 -315 115 -145
330 -362 469 -472 309 -246 652 -424 1033 -537 30 -9 64 -18 75 -21 11 -2 63
-13 115 -25 52 -11 106 -22 120 -24 50 -8 106 -16 165 -22 33 -4 74 -8 90 -10
101 -11 446 -4 545 11 14 2 45 6 70 10 25 3 56 8 70 10 14 3 39 7 55 10 369
62 815 241 1140 458 182 121 429 340 565 502 55 65 159 204 203 270 26 39 50
75 55 80 24 30 139 239 202 365 139 279 163 326 217 415 30 50 65 100 77 113
l22 23 138 -66 c75 -36 139 -65 141 -65 2 0 46 -20 97 -44 51 -24 119 -55 150
-70 70 -31 175 -80 323 -151 61 -29 151 -72 200 -95 50 -23 151 -72 225 -107
197 -95 340 -164 470 -226 199 -95 389 -186 570 -274 96 -47 252 -123 345
-168 270 -131 419 -206 427 -213 6 -7 -23 -130 -40 -166 -6 -12 -22 -54 -36
-94 -53 -150 -182 -427 -299 -642 -67 -125 -265 -447 -309 -505 -5 -5 -51 -71
-104 -145 -83 -115 -293 -386 -336 -431 -7 -8 -38 -43 -68 -79 -123 -146 -499
-528 -639 -650 -41 -36 -81 -72 -90 -81 -38 -36 -246 -204 -366 -293 -153
-115 -371 -261 -505 -338 -82 -47 -443 -228 -455 -228 -2 0 -37 -15 -77 -34
-112 -52 -320 -138 -458 -191 -69 -26 -138 -53 -155 -60 -16 -7 -148 -52 -293
-99 -341 -112 -578 -171 -762 -191 -30 -3 -71 -8 -90 -10 -93 -11 -288 -22
-540 -30 -138 -5 -952 -5 -1100 0 -414 12 -490 23 -835 116 -249 67 -815 263
-1010 349 -22 10 -93 41 -158 69 -261 113 -432 199 -688 344 -55 31 -275 175
-379 248 -155 109 -480 364 -566 444 -6 5 -51 47 -100 91 -252 231 -466 461
-692 744 -206 257 -419 571 -553 815 -15 28 -43 79 -63 115 -49 88 -188 371
-220 447 -14 35 -37 86 -49 115 -13 29 -30 69 -37 88 -7 19 -19 49 -26 65 -88
206 -238 702 -288 950 -33 160 -66 337 -76 405 -6 47 -14 96 -16 110 -2 14 -6
50 -9 80 -4 30 -8 65 -10 78 -2 12 -7 57 -10 100 -3 42 -8 93 -11 112 -21 175
-21 898 0 1005 2 11 7 59 11 107 3 49 8 96 9 105 2 10 7 45 10 78 4 33 9 71
11 85 2 14 6 43 10 65 7 48 10 64 29 180 17 96 17 96 42 220 18 94 84 360 114
460 11 39 22 78 25 88 8 36 126 383 141 414 7 17 14 36 14 42 0 6 4 19 9 29
11 21 23 50 57 132 14 36 34 83 44 105 9 22 34 78 55 125 91 206 310 616 414
775 42 64 51 79 58 95 4 8 11 20 15 25 5 6 45 66 90 135 45 69 91 137 102 151
12 14 30 37 41 52 11 15 25 27 30 27 6 0 27 -21 47 -47z"/>
<path d="M14697 19522 c-118 -202 -258 -441 -312 -532 -54 -91 -106 -178 -115
-195 -9 -16 -45 -79 -80 -140 -72 -127 -250 -471 -250 -485 0 -5 42 -28 92
-52 51 -24 180 -87 288 -141 759 -383 879 -442 884 -436 4 4 190 304 222 357
10 17 82 134 158 260 76 125 194 317 262 428 188 308 303 493 345 556 22 31
39 61 39 66 0 9 -160 111 -265 170 -46 25 -424 213 -530 262 -125 58 -481 228
-507 241 -14 7 -50 -49 -231 -359z"/>
</g>
</svg>
