<svg width="113" height="110" viewBox="0 0 113 110" xmlns="http://www.w3.org/2000/svg"><path d="M68.398 97.061l1.497 10.63-3.194.45-3.267-5.735-.354.05-1.558 6.415-3.192.448-1.498-10.629 2.13-.3.95 6.758.051 1.387.142-.02 1.47-6.014 2.766-.39 3.073 5.375.14-.021-.333-1.346-.952-6.758 2.13-.3zm-17.713.528c1.945.258 2.99 1.309 3.465 2.315a4.96 4.96 0 01.524 1.925l-2.201-.291a2.265 2.265 0 00-.305-.861c-.272-.454-.79-.91-1.755-1.038-1.35-.179-1.918.288-2.008.972-.125.942 1.298 1.44 2.718 2.047 1.444.578 2.803 1.547 2.55 3.447-.23 1.748-1.853 3.079-4.266 2.76-1.847-.245-2.758-1.218-3.22-2.099a4.734 4.734 0 01-.466-1.717l2.201.293c.027.235.114.448.247.65.23.341.658.707 1.51.82 1.136.15 1.703-.315 1.783-.923.095-.715-.679-1.189-1.697-1.587-1.645-.666-3.89-1.505-3.572-3.907.235-1.779 1.821-3.162 4.492-2.806zm-9.576-2.103l2.028.713-2.842 8.1 3.042 1.07-.712 2.024-8.11-2.849.71-2.025 3.041 1.069 2.843-8.102zm37.861-3.091l2.02 10.867-4.108 1.867-6.848-8.674 2.022-.919 1.504 1.927 3.848-1.748-.46-2.401 2.022-.92zm-1.134 5.48l-2.933 1.335 2.591 3.283 1.11-.504-.768-4.114zm-44.613-6.722c2.652 1.704 3.273 5.11 1.574 7.754-1.7 2.643-5.058 3.493-7.71 1.789-2.651-1.704-3.272-5.11-1.572-7.752 1.699-2.643 5.056-3.493 7.708-1.791zm53.086-4.439l6.654 8.416-5.9 4.663-1.33-1.683 4.213-3.33-1.33-1.685-3.372 2.666-1.235-1.563 3.37-2.665-1.425-1.804-4.215 3.331-1.33-1.681 5.9-4.665zm-58.866 7.469c-1.12 1.74-.762 3.702.806 4.709 1.567 1.006 3.5.516 4.619-1.224 1.119-1.742.76-3.702-.805-4.709-1.568-1.006-3.501-.517-4.62 1.224zM21.241 80.6l1.635 1.806-1.22 3.905 1.345 1.487 2.614-2.364 1.442 1.593-7.956 7.197-3.172-3.506c-1.644-1.817-1.45-4 .027-5.337 1.239-1.12 2.73-1.118 3.982-.511l1.303-4.27zm-3.795 6.428c-.637.575-.696 1.4.122 2.304l1.683 1.859 2.159-1.953-1.682-1.86c-.818-.902-1.645-.926-2.282-.35zM93.34 78.36l8.443 6.62-2.917 3.722c-1.51 1.929-3.694 2.108-5.262.879-1.314-1.032-1.565-2.502-1.18-3.838l-4.429-.56 1.503-1.918 4.055.541 1.237-1.578-2.774-2.177 1.324-1.691zm3.139 5.191l-1.546 1.974c-.751.958-.635 1.778.041 2.308.674.53 1.498.447 2.25-.511l1.546-1.974-2.291-1.797zm-81.75-15.423l.919 1.941-6.158 2.924-1.308.462.061.13 6.174-.394 1.198 2.523-4.209 4.535.062.129 1.184-.72 6.16-2.926.921 1.941-9.69 4.601-1.381-2.912 4.493-4.828-.154-.324-6.58.429-1.382-2.912 9.69-4.599zm83.369.263l9.818 4.33-1.477 3.343c-1.3 2.95-4.37 4.024-7.105 2.817-2.734-1.206-4.012-4.197-2.71-7.147l1.474-3.343zm-37.49-35.87c12.404 0 22.496 10.051 22.496 22.406 0 5.703-2.106 11.034-5.953 15.18l5.36 7.093-7.02-5.604-.001.002-6.307-5.04-11.29-9.01 2.814-2.74L38.333 32.52zm38.587 38.702l-.608 1.377c-.81 1.836-.109 3.476 1.645 4.25 1.752.773 3.436.185 4.245-1.653l.607-1.375-5.889-2.6zm-53.01-30.871v28.917h14.518c2.107 0 4.151-.46 6.028-1.303l8.757 3.634a22.46 22.46 0 01-14.785 5.525H38.33V40.352h7.856zm14.422.025h-3.256l8.954 8.918-2.774 2.784 8.76 11.594a14.331 14.331 0 002.957-8.746c0-8.023-6.569-14.55-14.64-14.55zm45.623 7.78a6.65 6.65 0 016.649 6.65 6.65 6.65 0 11-13.3 0 6.65 6.65 0 016.65-6.65zm-99.58 0a6.65 6.65 0 016.65 6.65 6.65 6.65 0 11-13.3 0 6.65 6.65 0 016.65-6.65zm0 .749a5.901 5.901 0 100 11.802 5.901 5.901 0 000-11.802zm99.58 0a5.902 5.902 0 10.001 11.803 5.902 5.902 0 00-.001-11.804zM8 52.05c1.097 0 2.063.91 2.063 2.672 0 1.286-.554 2.056-1.126 2.45a2.928 2.928 0 01-1.126.507v-1.455c.189-.057.357-.15.498-.272.253-.216.488-.591.488-1.23 0-.89-.329-1.218-.751-1.218-.582 0-.769.965-1.023 1.942-.233.985-.713 1.95-1.885 1.95-1.078 0-2.017-.937-2.017-2.532 0-1.22.516-1.895 1.013-2.27.3-.216.639-.366 1.004-.45v1.454a.898.898 0 00-.376.215c-.186.178-.374.488-.374 1.05 0 .752.328 1.08.704 1.08.44 0 .665-.544.824-1.239.272-1.125.602-2.654 2.084-2.654zm97.069-.117v1.455c-.188.056-.357.15-.499.272-.252.216-.488.591-.488 1.23 0 .89.33 1.218.752 1.218.582 0 .768-.966 1.022-1.942.233-.984.713-1.95 1.886-1.95 1.078 0 2.017.938 2.017 2.531 0 1.22-.516 1.896-1.013 2.27a2.8 2.8 0 01-1.004.452v-1.454a.908.908 0 00.375-.216c.187-.178.375-.488.375-1.052 0-.75-.328-1.077-.704-1.077-.44 0-.666.543-.825 1.238-.272 1.125-.601 2.654-2.082 2.654-1.098 0-2.064-.909-2.064-2.672 0-1.286.554-2.056 1.125-2.45a2.935 2.935 0 011.127-.507zM13.487 31.228c2.749 1.174 4.06 4.15 2.794 7.112l-1.435 3.36-9.866-4.216 1.434-3.358c1.267-2.964 4.324-4.072 7.073-2.898zm89.242-5.414l1.414 2.895-4.437 4.88.156.32 6.577-.503 1.415 2.894-9.637 4.711-.944-1.93 6.128-2.995 1.3-.476-.062-.13-6.17.465-1.225-2.508 4.157-4.583-.063-.128-1.176.734-6.128 2.994-.943-1.929 9.638-4.71zM8.388 34.968l-.591 1.384 5.92 2.528.591-1.382c.788-1.844.069-3.476-1.693-4.228-1.762-.753-3.438-.145-4.227 1.698zm10.701-14.502c1.326 1.015 1.594 2.482 1.225 3.823l4.436.509-1.48 1.935-4.061-.493-1.22 1.593 2.802 2.144-1.306 1.707-8.525-6.523 2.874-3.755c1.488-1.946 3.672-2.152 5.255-.94zm74.448-5.511l3.21 3.47c1.662 1.798 1.493 3.985.032 5.34-1.227 1.135-2.718 1.15-3.975.557l-1.256 4.287-1.653-1.787 1.176-3.92-1.361-1.473-2.587 2.396-1.46-1.577 7.874-7.293zm-78.043 7.811l-1.523 1.993 2.314 1.77 1.523-1.992c.74-.967.613-1.786-.069-2.307-.68-.522-1.504-.43-2.245.536zm10.001-12.584l1.35 1.668-4.172 3.383 1.35 1.668 3.34-2.706 1.255 1.55-3.34 2.705 1.449 1.787 4.173-3.383 1.352 1.669-5.843 4.735-6.758-8.34 5.844-4.736zm67.927 7.808l-2.137 1.98 1.701 1.84c.827.894 1.656.909 2.286.324.629-.582.677-1.41-.148-2.303l-1.702-1.84zm-7.933-9.4c2.67 1.675 3.328 5.074 1.657 7.736-1.671 2.663-5.017 3.55-7.686 1.875-2.672-1.675-3.328-5.074-1.658-7.737 1.67-2.663 5.018-3.549 7.687-1.873zM35.621 4.73l6.952 8.596-2.01.94-1.527-1.908-3.827 1.792.49 2.394-2.01.942-2.154-10.843 4.086-1.913zm44.123 6.954c-1.102 1.753-.722 3.711.856 4.7 1.577.99 3.505.479 4.604-1.275 1.101-1.752.723-3.71-.855-4.7-1.578-.99-3.505-.48-4.605 1.275zM69.866 2.07l8.142 2.756-.688 2.033-3.053-1.034-2.75 8.13-2.035-.69 2.75-8.128-3.053-1.034.687-2.033zM54.149.323l1.613 10.61-2.124.322-1.026-6.744-.066-1.385-.143.02-1.4 6.03-2.762.42-3.13-5.339-.14.022.348 1.342 1.026 6.745-2.123.323-1.615-10.61 3.186-.485 3.33 5.697.354-.054 1.485-6.43L54.15.323zm8.916.352c1.848.224 2.772 1.184 3.242 2.06a4.71 4.71 0 01.486 1.71l-2.203-.266a1.5 1.5 0 00-.253-.649c-.234-.337-.667-.698-1.52-.8-1.137-.139-1.7.334-1.773.943-.086.715.695 1.18 1.716 1.566 1.653.648 3.905 1.46 3.615 3.865-.214 1.78-1.782 3.18-4.455 2.857-1.948-.236-3.006-1.274-3.49-2.274a4.956 4.956 0 01-.548-1.919l2.204.266c.047.315.157.606.315.857.277.45.8.899 1.765 1.015 1.352.164 1.914-.308 1.997-.993.113-.943-1.314-1.425-2.743-2.015-1.447-.56-2.818-1.514-2.588-3.415.21-1.75 1.816-3.1 4.233-2.808zM35.04 7.37l-1.103.516.816 4.105 2.919-1.367-2.632-3.254z" fill="#000" fill-rule="evenodd"/></svg>