<svg width="238" height="28" viewBox="0 0 238 28" xmlns="http://www.w3.org/2000/svg"><path d="M237.62 5.6c.209 0 .379.171.38.383V23.8c0 2.32-1.866 4.2-4.169 4.2h-2.707a.383.383 0 01-.38-.384V25.58a.38.38 0 01.38-.38h2.708c.8 0 1.389-.594 1.389-1.4v-1.4l-4.173-.002c-2.303.002-4.17-1.878-4.17-4.198V9.8c0-2.32 1.867-4.2 4.17-4.2zM22.23 0c6.137.003 11.114 5.02 11.114 11.205-.002 6.184-4.979 11.199-11.115 11.202H.38a.382.382 0 01-.38-.384V.383C0 .17.17 0 .38 0zm187.36 5.6c.209 0 .38.172.38.383v16.033c0 .212-.171.383-.38.384h-2.017a.382.382 0 01-.381-.383V5.983c0-.211.17-.383.38-.383zM71 0c.21 0 .38.172.38.384V5.6h4.08c.21 0 .38.172.38.384V8.02a.383.383 0 01-.38.38h-4.08v9.74c0 .806.648 1.46 1.448 1.46h2.632c.21 0 .38.172.38.383v2.037a.383.383 0 01-.38.38h-2.691c-2.302 0-4.17-1.88-4.17-4.2L68.6.382c0-.21.171-.382.38-.382zM57.166 5.6c.21 0 .38.172.38.384V18.2a1.4 1.4 0 001.385 1.4h3.788c.21 0 .38-.171.38-.383V5.983c.001-.212.172-.383.382-.383H65.5c.21 0 .38.172.38.384v15.365a1.05 1.05 0 01-1.046 1.051h-5.902c-2.303 0-4.17-1.88-4.17-4.2l.001-12.217c.001-.212.171-.383.381-.383zm23.796 0c.21 0 .38.172.38.384V18.2a1.4 1.4 0 001.385 1.4h3.789c.21 0 .38-.171.38-.383V5.983c.001-.212.171-.383.381-.383h2.019c.21 0 .38.172.38.384v15.365A1.05 1.05 0 0188.63 22.4h-5.903c-2.302 0-4.168-1.88-4.168-4.2V5.983c0-.212.171-.383.38-.383zm15.603 0h2.782c.21 0 .38.172.38.384v2.032a.383.383 0 01-.38.383h-2.744c-.8 0-1.448.595-1.448 1.4v12.217c0 .212-.17.383-.38.384h-1.998a.383.383 0 01-.381-.383V9.8c0-2.32 1.866-4.2 4.169-4.2zm43.517 0h2.783c.21 0 .38.172.38.384v2.032a.383.383 0 01-.381.383h-2.743c-.8 0-1.449.595-1.449 1.4v12.217c0 .212-.17.383-.38.384h-1.997a.383.383 0 01-.382-.383V9.8c0-2.32 1.867-4.2 4.169-4.2zM52.883 0c.21 0 .379.172.379.384v2.033c0 .211-.17.383-.38.383h-6.7v7h5.2c.21 0 .38.172.38.384v2.036a.382.382 0 01-.381.38h-5.199v9.416c0 .212-.17.383-.38.384h-1.997a.382.382 0 01-.381-.383V.383c0-.212.17-.383.38-.383zm167.11 5.6c2.303 0 4.17 1.88 4.17 4.2v12.217c-.001.211-.171.383-.381.383h-2.023a.382.382 0 01-.38-.384V9.8a1.4 1.4 0 00-1.385-1.4h-3.785c-.21 0-.38.17-.38.382v13.235c-.002.211-.171.383-.382.383h-2.018a.382.382 0 01-.38-.384V6.651a1.05 1.05 0 011.046-1.051zM129.52 0c2.302 0 4.17 1.88 4.17 4.2v5.6c0 2.32-1.868 4.2-4.17 4.2h-4.169v8.016c0 .212-.17.383-.38.384h-2.018a.382.382 0 01-.381-.383V.383c0-.212.17-.383.38-.383zm22.321 5.603c2.301 0 4.167 1.879 4.169 4.197v8.4c0 2.32-1.867 4.2-4.169 4.2h-2.734c-2.302 0-4.169-1.88-4.169-4.2V9.803c0-2.32 1.867-4.2 4.17-4.2zm10.726-.003c.063 0 .122.001.18.003h4.13c.21.001.38.173.38.384V8.02a.382.382 0 01-.38.383h-4.251c-.8 0-1.449.59-1.449 1.397v8.4c0 .806.649 1.4 1.449 1.4h4.25c.21 0 .38.169.381.38v2.036c0 .211-.17.383-.38.384h-4.31c-2.302 0-4.169-1.88-4.169-4.2V9.8c0-2.32 1.867-4.2 4.169-4.2zm-54.243 0c2.302 0 4.168 1.88 4.168 4.2v5.215c0 .211-.17.382-.38.382h-7.932v2.743c0 .806.648 1.46 1.448 1.46h5.395c.21 0 .38.172.38.384v2.033a.383.383 0 01-.381.383h-5.432c-2.303 0-4.17-1.88-4.17-4.2V9.8l.006-.21c.108-2.222 1.931-3.99 4.164-3.99zm68.269 0c2.303 0 4.17 1.88 4.17 4.2v5.215a.383.383 0 01-.382.382h-7.957v2.743c0 .806.649 1.46 1.449 1.46h5.415c.21 0 .38.172.38.384v2.033a.383.383 0 01-.381.383h-5.473c-2.303 0-4.17-1.88-4.17-4.2V9.8c0-2.32 1.867-4.2 4.17-4.2zm10.726 0h4.468c.21.001.38.172.38.384v2.033a.383.383 0 01-.381.383h-4.469c-.8 0-1.388.594-1.388 1.4v.715c0 .594.352 1.106.858 1.338l4.388 1.992a3.538 3.538 0 012.082 3.231V18.2c0 2.32-1.867 4.2-4.17 4.2h-5.558a.383.383 0 01-.38-.384V19.98a.38.38 0 01.381-.38h5.558c.766 0 1.39-.63 1.39-1.4v-1.023c0-.589-.347-1.06-.846-1.289l-4.397-1.997a3.603 3.603 0 01-2.085-3.275V9.8c0-2.32 1.866-4.2 4.169-4.2zm11.528 0h4.469c.21.001.38.172.38.384v2.033c-.002.211-.171.383-.382.383h-4.468c-.8 0-1.388.594-1.388 1.4v.715c0 .594.352 1.106.858 1.338l4.388 1.992a3.538 3.538 0 012.081 3.231V18.2c0 2.32-1.867 4.2-4.169 4.2h-5.558a.383.383 0 01-.38-.384V19.98a.38.38 0 01.381-.38h5.557c.766 0 1.39-.63 1.39-1.4v-1.023c0-.589-.347-1.06-.845-1.289l-4.398-1.997a3.603 3.603 0 01-2.085-3.275V9.8c0-2.32 1.867-4.2 4.17-4.2zM22.23 1.4c-5.383 0-9.721 4.397-9.721 9.821 0 5.424 4.338 9.779 9.721 9.779zm212.992 7h-4.11c-.8 0-1.449.594-1.449 1.4v8.4c0 .806.649 1.4 1.449 1.4h4.11V8.4zm-83.395 0h-2.66c-.8 0-1.45.653-1.45 1.46v8.34c0 .806.59 1.399 1.39 1.399h2.72c.8 0 1.45-.593 1.45-1.4V9.8c0-.805-.65-1.4-1.45-1.4zm-43.542 0h-2.657c-.8 0-1.448.653-1.448 1.46v2.74h5.554V9.86c0-.807-.649-1.46-1.449-1.46zm68.308 0h-2.78c-.77 0-1.389.644-1.389 1.4v2.8h5.559V9.8c0-.775-.623-1.4-1.39-1.4zM129.46 2.8h-4.11v8.4l4.11-.002c.8 0 1.449-.6 1.449-1.406V4.2c0-.806-.649-1.4-1.45-1.4zM209.59 0c.209 0 .38.172.38.384v2.032c0 .212-.171.383-.38.384h-2.017a.382.382 0 01-.381-.383V.383c0-.212.17-.383.38-.383z" fill="#FFF" fill-rule="evenodd"/></svg>