<svg width="169" height="45" viewBox="0 0 169 45" xmlns="http://www.w3.org/2000/svg"><path d="M65.37 1.198a22.217 22.217 0 0115.037 21.034c-.015 12.263-9.953 22.2-22.216 22.213-4.824 0-8.991-1.517-13.114-4.78l-.053-.042-.158-.125-.029-.023a6.76 6.76 0 01-.24-.199l-.028-.025a4.025 4.025 0 015.321-6.029l.095.082c2.713 2.175 5.172 3.11 8.207 3.11 7.832 0 14.18-6.35 14.18-14.182-.001-7.833-6.351-14.18-14.183-14.18a14.181 14.181 0 00-13.134 8.837l-.05.126a5.948 5.948 0 00-.412 1.486v3.735c0 .28-.006.56-.016.834v.029c-.032.813-.109 1.623-.23 2.427a5.961 5.961 0 01-.054.35 16.216 16.216 0 01-.23 1.19c-.044.188-.083.367-.13.554-.042.174-.089.36-.14.544-.031.126-.07.265-.117.403-.047.14-.082.289-.132.432a13.847 13.847 0 01-.256.762c-.048.132-.098.268-.155.41a1.64 1.64 0 01-.076.197c-.032.088-.07.18-.108.265-.035.098-.079.192-.12.29-.041.098-.08.19-.127.292l-.053.123c-.057.133-.117.259-.177.386-.07.154-.15.31-.221.458l-.048.09c-.035.071-.07.141-.108.207-.07.14-.151.29-.234.436a22.053 22.053 0 01-1.052 1.73C33.949 44.816 20.143 47.5 9.971 40.64-.2 33.78-2.884 19.974 3.976 9.803a22.211 22.211 0 014.61-4.981A21.97 21.97 0 0122.38.019h13.191a4.017 4.017 0 01.001 8.034H22.38c-7.832.002-14.18 6.352-14.178 14.184.002 7.832 6.353 14.18 14.185 14.178 6.22 0 11.713-4.056 13.547-10l-9.203.001a5.671 5.671 0 11-.006-8.036l9.754.003c.11-1.093.327-2.174.648-3.226l.038-.114C41.131 3.43 53.76-2.767 65.37 1.198zm83.935 27.577a4.1 4.1 0 011.42.87c.417.398.742.883.953 1.42a5.1 5.1 0 01.346 1.95 5.28 5.28 0 01-.338 1.96 3.957 3.957 0 01-.94 1.428c-.407.386-.89.681-1.42.869a5.182 5.182 0 01-1.78.297 5.089 5.089 0 01-1.781-.304 3.955 3.955 0 01-1.414-.884 4.086 4.086 0 01-.933-1.427 5.178 5.178 0 01-.338-1.936v-.003a5.088 5.088 0 01.346-1.95 3.926 3.926 0 012.36-2.29 5.366 5.366 0 013.519 0zm-50.466 0a4.087 4.087 0 011.42.87c.418.398.743.883.954 1.42.243.62.362 1.283.35 1.95a5.296 5.296 0 01-.338 1.96 3.957 3.957 0 01-.94 1.428c-.408.386-.891.682-1.42.869a5.18 5.18 0 01-1.782.297 5.092 5.092 0 01-1.78-.304 3.956 3.956 0 01-1.413-.884 4.074 4.074 0 01-.933-1.427 5.165 5.165 0 01-.339-1.936l-.003-.003a5.101 5.101 0 01.345-1.95 3.93 3.93 0 012.36-2.29 5.364 5.364 0 013.52 0zm66.368-.27c.38-.002.757.026 1.132.084.31.046.612.134.898.262.229.102.43.257.586.453.14.184.215.411.21.644.007.222-.052.44-.17.63-.108.17-.248.32-.41.444a3.221 3.221 0 00-.833-.345 4.157 4.157 0 00-1.144-.149 1.868 1.868 0 00-.934.177.514.514 0 00-.297.444.41.41 0 00.185.35c.169.112.355.196.55.248l.75.24c.749.21 1.446.579 2.041 1.081a2.31 2.31 0 01.714 1.788 2.351 2.351 0 01-.947 1.943c-.82.55-1.798.81-2.784.741a6.475 6.475 0 01-1.208-.105 3.785 3.785 0 01-.975-.31 1.816 1.816 0 01-.65-.51 1.115 1.115 0 01-.233-.7 1.062 1.062 0 01.24-.7c.144-.18.322-.331.523-.445.295.225.62.406.968.538.4.154.823.23 1.25.226.34.031.68-.042.976-.21a.61.61 0 00.28-.495.485.485 0 00-.227-.43 2.985 2.985 0 00-.635-.29l-.588-.206c-.414-.14-.791-.283-1.13-.43a3.485 3.485 0 01-.877-.531 2.185 2.185 0 01-.572-.741 2.433 2.433 0 01-.205-1.054 2.311 2.311 0 01.926-1.921 4.132 4.132 0 012.59-.72zm-34.03.106c.427-.008.85.06 1.253.205.319.095.577.332.7.642.169.491.352 1.06.55 1.71.198.65.396 1.322.595 2.015a338.513 338.513 0 011.074 3.836c-.14.149-.315.258-.51.317-.26.087-.532.127-.805.121a2.459 2.459 0 01-.572-.057 1.014 1.014 0 01-.382-.17.834.834 0 01-.24-.296 2.688 2.688 0 01-.163-.42l-.254-.975h-2.558l-.113.43-.113.445c-.075.302-.15.594-.226.877a3.64 3.64 0 01-.42.12 2.448 2.448 0 01-.53.05 1.852 1.852 0 01-1.067-.247.796.796 0 01-.35-.686 1.4 1.4 0 01.057-.395c.037-.132.08-.288.127-.466.067-.256.158-.571.275-.948.118-.378.248-.785.389-1.223.14-.438.293-.887.453-1.35l.452-1.306a59.777 59.777 0 01.664-1.83l.007-.004c.23-.12.475-.21.727-.268.32-.084.65-.126.98-.127zm28.28.714a2.73 2.73 0 01.99 2.219 2.469 2.469 0 01-.453 1.497 3.242 3.242 0 01-1.073.962c.339.462.673.895 1.002 1.3.289.346.549.714.778 1.102-.077.305-.26.573-.516.756a1.43 1.43 0 01-.84.261 1.831 1.831 0 01-.538-.07 1.312 1.312 0 01-.395-.197 1.599 1.599 0 01-.312-.311 4.217 4.217 0 01-.268-.396l-1.185-1.91h-.75v2.713c-.16.039-.325.067-.49.084a5.167 5.167 0 01-.657.043 2.91 2.91 0 01-.573-.05.97.97 0 01-.41-.176.783.783 0 01-.247-.354 1.74 1.74 0 01-.084-.593V29.55a.623.623 0 01.162-.46c.127-.12.279-.208.445-.26a5.3 5.3 0 011.117-.248c.45-.053.903-.08 1.356-.078a4.516 4.516 0 012.941.82zm-34.508 0a2.73 2.73 0 01.99 2.219 2.473 2.473 0 01-.453 1.497 3.237 3.237 0 01-1.074.962c.34.462.674.895 1.003 1.3.289.346.549.714.778 1.102a1.33 1.33 0 01-.516.756c-.246.173-.54.265-.84.261a1.831 1.831 0 01-.538-.07 1.312 1.312 0 01-.395-.197 1.598 1.598 0 01-.312-.311 4.22 4.22 0 01-.268-.396l-1.187-1.91h-.75v2.713c-.161.039-.325.067-.49.084a5.167 5.167 0 01-.658.043 2.91 2.91 0 01-.573-.05.97.97 0 01-.41-.176.783.783 0 01-.247-.354 1.725 1.725 0 01-.085-.593V29.55a.624.624 0 01.163-.46c.126-.118.279-.208.446-.26a5.315 5.315 0 011.12-.248c.45-.053.902-.08 1.355-.078a4.516 4.516 0 012.941.82zm-16.057.014a2.758 2.758 0 011.03 2.261c.007.427-.067.852-.218 1.25a2.598 2.598 0 01-.65.961 2.912 2.912 0 01-1.088.623 4.812 4.812 0 01-1.519.218h-1.004l.003 2.601c-.161.04-.326.068-.49.085a5.302 5.302 0 01-.658.044 2.947 2.947 0 01-.572-.05 1.036 1.036 0 01-.417-.177.76.76 0 01-.253-.354 1.69 1.69 0 01-.086-.594v-6.656a.62.62 0 01.162-.46c.127-.119.28-.208.446-.261.356-.12.723-.203 1.095-.247.41-.052.823-.078 1.237-.078a4.646 4.646 0 012.982.834zm33.509-.637c.078.134.14.277.183.425.057.182.086.373.085.565a1.07 1.07 0 01-.247.791.878.878 0 01-.643.24h-1.569v6.53a3.877 3.877 0 01-.49.084 5.155 5.155 0 01-.657.042 2.97 2.97 0 01-.573-.048 1.03 1.03 0 01-.416-.177.762.762 0 01-.255-.35 1.747 1.747 0 01-.085-.595v-5.485h-2.116a1.808 1.808 0 01-.184-.424 1.848 1.848 0 01-.086-.566 1.072 1.072 0 01.248-.792.89.89 0 01.643-.24h6.162zm-29.904.04h4.664a1.864 1.864 0 01.255.947c.027.275-.057.55-.233.763a.845.845 0 01-.615.227h-2.981v1.314h3.179c.075.125.134.261.176.402.053.172.08.35.078.53.028.274-.054.549-.226.763a.822.822 0 01-.608.227h-2.6v1.484h3.632c.077.128.135.266.176.41.053.173.08.355.078.536a1.06 1.06 0 01-.233.77.828.828 0 01-.615.233h-4.127a1.22 1.22 0 01-1.314-1.314v-5.978a1.221 1.221 0 011.314-1.314zM97.093 30.47a1.75 1.75 0 00-1.405.63 2.915 2.915 0 00-.538 1.688l.008.225c-.05.682.133 1.36.523 1.922a1.872 1.872 0 002.812 0c.39-.562.574-1.24.523-1.922a2.987 2.987 0 00-.516-1.908 1.716 1.716 0 00-1.407-.635zm50.466 0a1.749 1.749 0 00-1.406.63 2.922 2.922 0 00-.538 1.688l.008.225a2.98 2.98 0 00.523 1.922 1.872 1.872 0 002.812 0c.39-.562.574-1.24.523-1.922a2.988 2.988 0 00-.517-1.908 1.714 1.714 0 00-1.405-.635zm-16.31.357h-.084c-.132.396-.28.836-.445 1.32-.164.486-.312.978-.445 1.478h1.75a111.913 111.913 0 00-.776-2.798zm-72.833-4.36a3.39 3.39 0 110 6.78 3.39 3.39 0 01-.001-6.78zm47.692 4.018c-.15 0-.275 0-.373.007a2.336 2.336 0 00-.304.036v2.189h.75c.327.022.65-.076.91-.275.227-.219.344-.527.319-.84a1.044 1.044 0 00-.333-.827 1.435 1.435 0 00-.969-.29zm50.394-.001a3.018 3.018 0 00-.62.056v2.12h.905c.308.017.61-.082.848-.275.22-.212.333-.51.312-.813a.98.98 0 00-.35-.813 1.753 1.753 0 00-1.095-.275zm-34.505 0a3.025 3.025 0 00-.619.056v2.12h.9c.307.017.609-.082.847-.275.22-.212.333-.51.312-.813a.98.98 0 00-.35-.813 1.755 1.755 0 00-1.09-.275zM50.992 19.043a3.391 3.391 0 110 6.782 3.391 3.391 0 010-6.782zm14.847-.065a3.39 3.39 0 11-.187.005l.187-.005zm97.222-10.99c.652-.004 1.303.045 1.947.146a5.808 5.808 0 011.546.45c.394.176.74.443 1.01.779.244.318.372.708.366 1.108.01.382-.09.76-.293 1.083a3.031 3.031 0 01-.706.77 5.528 5.528 0 00-1.436-.596 7.213 7.213 0 00-1.971-.256 3.251 3.251 0 00-1.61.305.888.888 0 00-.511.767.706.706 0 00.316.596c.291.191.612.336.949.427l1.29.413a9.356 9.356 0 013.518 1.862 3.98 3.98 0 011.23 3.081 4.048 4.048 0 01-1.632 3.348c-1.087.85-2.685 1.278-4.795 1.278a11.095 11.095 0 01-2.082-.183 6.567 6.567 0 01-1.68-.535 3.1 3.1 0 01-1.12-.877 1.931 1.931 0 01-.403-1.205 1.824 1.824 0 01.415-1.205c.25-.31.554-.57.9-.767.509.388 1.07.7 1.668.925a5.813 5.813 0 002.155.39 2.89 2.89 0 001.68-.365c.294-.186.477-.504.49-.852a.835.835 0 00-.39-.743 5.127 5.127 0 00-1.095-.5l-1.026-.348a26.921 26.921 0 01-1.948-.742 5.953 5.953 0 01-1.508-.91 3.751 3.751 0 01-.986-1.278c-.25-.571-.37-1.19-.35-1.814a3.985 3.985 0 011.594-3.31 7.116 7.116 0 014.468-1.242zm-58.61.738a2.201 2.201 0 011.35 1.935c.009.39-.101.772-.316 1.096-.194.29-.441.537-.731.73a10.01 10.01 0 00-1.521-.718 5.668 5.668 0 00-2.058-.35 4.469 4.469 0 00-3.25 1.168 4.296 4.296 0 00-1.204 3.238c-.016.66.096 1.317.328 1.935.193.506.498.964.888 1.339.372.348.81.613 1.292.78.5.172 1.027.258 1.557.255.32.004.638-.03.949-.098.219-.044.43-.118.63-.219v-2.29H99.76a3.94 3.94 0 01-.28-.707c-.091-.3-.136-.611-.134-.924a1.701 1.701 0 01.401-1.266 1.425 1.425 0 011.035-.39h4.114a1.4 1.4 0 011.534 1.534l.005 4.966c.028.393-.066.784-.27 1.12-.233.29-.522.531-.851.707-.273.15-.557.276-.852.377-.367.129-.74.235-1.12.317-.856.184-1.729.278-2.605.28a11.045 11.045 0 01-3.286-.475 7.487 7.487 0 01-2.666-1.436 6.814 6.814 0 01-1.789-2.398 7.925 7.925 0 01-.658-2.992v-.344c-.028-1.2.218-2.39.719-3.48a7.336 7.336 0 011.898-2.472 7.964 7.964 0 012.703-1.47c1.01-.325 2.066-.49 3.128-.49a7.65 7.65 0 013.664.742zm11.11-.57a6.09 6.09 0 012.153.35c.55.164.994.572 1.205 1.106.293.845.61 1.826.95 2.946.341 1.12.682 2.275 1.022 3.47a684.366 684.366 0 011.85 6.61 2 2 0 01-.876.548c-.447.147-.917.219-1.388.21a4.24 4.24 0 01-.985-.098 1.758 1.758 0 01-.657-.292 1.434 1.434 0 01-.415-.511 4.326 4.326 0 01-.279-.73l-.438-1.681h-4.406c-.131.486-.26.99-.39 1.51-.13.519-.26 1.022-.39 1.508a6.179 6.179 0 01-.718.21 4.18 4.18 0 01-.91.086 3.188 3.188 0 01-1.838-.427 1.366 1.366 0 01-.596-1.18c0-.231.032-.46.097-.682.064-.227.138-.494.22-.803.113-.438.27-.982.473-1.632.204-.649.427-1.35.67-2.105.243-.755.503-1.53.78-2.324l.778-2.252a103.709 103.709 0 011.144-3.153l-.002-.004a5.138 5.138 0 011.253-.462 6.643 6.643 0 011.692-.219zm14.29.547a2.38 2.38 0 011.072 1.302c.147.39.304.835.473 1.339a111.109 111.109 0 011.012 3.152l.439 1.424h.121a212.15 212.15 0 011.168-3.955 53.81 53.81 0 011.072-3.201c.296-.15.61-.26.936-.33a5.636 5.636 0 011.278-.133 4.632 4.632 0 011.948.35c.445.167.774.547.876 1.01.065.327.134.826.207 1.497a274.183 274.183 0 01.475 4.954c.082.942.158 1.846.232 2.714.072.87.133 1.665.182 2.387.047.72.08 1.277.097 1.667-.269.158-.56.276-.863.35-.38.082-.77.118-1.158.11a3.46 3.46 0 01-1.557-.317 1.338 1.338 0 01-.683-1.241c-.095-1.77-.156-3.36-.18-4.772a110.194 110.194 0 00-.111-3.554h-.122a42.087 42.087 0 01-.705 2.386 149.85 149.85 0 00-1.12 3.676v.005c-.24.195-.517.34-.814.427a3.848 3.848 0 01-1.156.158 4.115 4.115 0 01-1.45-.22c-.354-.118-.63-.398-.742-.754a340.634 340.634 0 00-1.12-3.47c-.294-.884-.521-1.66-.683-2.324h-.122c-.046.958-.083 1.83-.11 2.617a90.622 90.622 0 00-.047 2.3c-.01.747-.025 1.501-.05 2.265-.024.762-.06 1.607-.109 2.531a4.379 4.379 0 01-.828.207c-.338.056-.68.085-1.022.085a3.388 3.388 0 01-1.667-.34 1.301 1.301 0 01-.597-1.242l.706-12.415c.226-.292.518-.525.852-.682a3.853 3.853 0 011.85-.365 4.216 4.216 0 012.02.402zm16.555-.306h8.034c.132.222.234.459.304.707.09.3.135.612.134.925.047.474-.097.948-.402 1.314a1.45 1.45 0 01-.913.39h-5.282v2.264h5.477c.13.217.233.45.305.694.09.295.135.602.133.91a1.82 1.82 0 01-.389 1.315 1.416 1.416 0 01-.905.39h-4.626v2.555h6.256c.132.221.235.459.305.707.09.3.135.612.133.925.046.478-.098.955-.402 1.326a1.434 1.434 0 01-1.058.402h-7.104a2.1 2.1 0 01-2.264-2.264V10.662a2.1 2.1 0 012.264-2.265zm-87.99 3.223a3.39 3.39 0 11-.187.005l.187-.005zm57.272.357h-.149c-.228.68-.484 1.44-.767 2.276-.283.837-.54 1.684-.77 2.544h3.024a137.48 137.48 0 00-.693-2.569c-.235-.836-.45-1.586-.645-2.251z" fill="#FFF" fill-rule="evenodd"/></svg>