<svg width="196" height="28" viewBox="0 0 196 28" xmlns="http://www.w3.org/2000/svg"><path d="M104.784 6.053c3.015 0 5.278.98 6.785 3.047.647.87 1.185 1.959 1.4 3.047v.11h-4.522v-.11c-.11-.435-.323-.761-.648-1.088-.645-.762-1.722-1.088-3.015-1.088-2.26 0-3.122.98-3.122 1.959 0 1.088 1.077 1.85 3.554 2.394l.215.109c3.231.761 7.646 1.85 7.753 6.31 0 3.157-2.477 6.313-8.077 6.313-4.308 0-6.461-2.068-7.323-3.373-.754-.98-1.184-2.068-1.507-3.374v-.11h4.522v.11c.11.544.432.978.754 1.415.755.87 2.047 1.414 3.554 1.414 2.37 0 3.555-.762 3.555-2.176 0-1.415-2.478-2.068-4.955-2.72-.215-.11-.538-.11-.754-.22-3.876-.978-5.814-2.828-5.814-5.766 0-1.741.754-3.265 2.045-4.353 1.401-1.197 3.34-1.85 5.6-1.85zm30.693 4.788c4.63 0 8.077 3.482 8.077 7.944 0 4.463-3.447 7.944-8.077 7.944-4.631 0-8.077-3.481-8.077-7.944 0-4.462 3.446-7.944 8.077-7.944zm-94.77 0c4.631 0 7.754 3.483 7.754 7.836v1.088H37.046c.323 1.85 1.939 3.482 3.77 3.482 1.292 0 2.045-.435 2.584-.872.215-.216.43-.544.646-.869h4.308c-.323.98-.754 1.85-1.4 2.612-1.185 1.306-3.016 2.61-6.246 2.61-4.523 0-7.97-3.48-7.97-7.943 0-4.461 3.447-7.944 7.97-7.944zm16.8-.109c1.724 0 2.8.653 3.554 1.197.431.327.754.762 1.077 1.197h.108v-2.068h4.092v15.236h-4.092v-2.068h-.108c-.215.435-.646.87-1.077 1.198-.861.652-1.938 1.196-3.554 1.196-3.769 0-6.784-3.156-6.784-7.944 0-4.897 3.015-7.944 6.784-7.944zM7.862 6.706c6.03 0 10.553 4.244 10.553 9.903 0 5.55-4.523 9.794-10.553 9.794H.754V6.706zm113.185 1.523v3.265h4.199v3.591h-4.2v7.727h4.416v3.482h-8.4V15.085h-1.938v-3.591h1.938V8.229h3.985zm-95.201 2.83v2.503h.215c.108-.436.431-.871.754-1.198.539-.652 1.508-1.305 2.908-1.305h1.723v3.917h-2.154c-2.154 0-3.446 1.306-3.446 3.374v7.944h-4.092V11.059h4.092zm62.03-.109c3.555 0 5.71 2.176 5.924 6.312v9.032h-4.093v-8.597c0-2.285-1.077-3.265-2.799-3.265-1.832 0-3.23 1.415-3.23 3.81v8.052h-4.093v-8.597c0-2.285-.97-3.265-2.8-3.265-1.832 0-3.232 1.415-3.232 3.81v8.052h-4.092V11.06h4.092v2.394h.11c.213-.435.538-.87.967-1.197.648-.653 1.724-1.306 3.34-1.306 1.83 0 3.122.762 3.876 1.415.432.435.861.87 1.077 1.414h.107c.324-.544.648-.979 1.077-1.414.863-.762 1.94-1.415 3.77-1.415zm62.139.109v2.503h.109c.106-.436.43-.871.752-1.198.539-.652 1.508-1.305 3.017-1.305h1.722v3.917h-2.154c-2.154 0-3.446 1.306-3.446 3.374v7.944h-4.092V11.059h4.092zm26.493-.109c3.554 0 5.708 2.176 5.923 6.312v9.032h-4.093v-8.597c0-2.285-1.077-3.265-2.8-3.265-1.831 0-3.23 1.415-3.23 3.81v8.052h-4.092v-8.597c0-2.285-1.077-3.265-2.801-3.265-1.83 0-3.231 1.415-3.231 3.81v8.052h-4.092V11.06h4.092v2.394h.109c.215-.435.538-.87.968-1.197.647-.653 1.724-1.306 3.34-1.306 1.83 0 3.121.762 3.875 1.415.432.435.862.87 1.077 1.414h.109c.323-.544.646-.979 1.077-1.414.861-.762 1.938-1.415 3.77-1.415zM58.477 14.432c-2.046 0-3.662 1.632-3.662 4.353 0 2.72 1.616 4.353 3.662 4.353 2.261 0 3.769-1.632 3.769-4.353 0-2.72-1.615-4.353-3.77-4.353zm77 0c-2.154 0-3.877 1.741-3.877 4.353 0 2.612 1.723 4.353 3.877 4.353s3.878-1.85 3.878-4.353c0-2.612-1.724-4.353-3.878-4.353zM7.862 10.842h-2.8v11.426h2.8C11.63 22.268 14 19.982 14 16.5c0-3.482-2.37-5.659-6.138-5.659zm32.846 3.373c-1.939 0-3.231 1.306-3.662 2.83h7.108c-.216-1.524-1.508-2.83-3.446-2.83zM189.646.068c3.016 0 5.384 2.503 5.384 5.44 0 2.94-2.368 5.442-5.384 5.442-2.907 0-5.385-2.503-5.385-5.441 0-2.938 2.37-5.441 5.385-5.441zm0 .653c-2.693 0-4.846 2.176-4.846 4.897 0 2.72 2.153 4.897 4.846 4.897 2.692 0 4.846-2.177 4.846-4.897S192.338.72 189.646.72zm.108 1.958c.968 0 1.507.436 1.83.871.109.326.215.544.324.87h-1.186c-.106-.108-.106-.217-.214-.326-.108-.218-.43-.326-.863-.326-.645 0-.86.217-.86.544 0 .326.43.544.97.653.86.217 2.153.544 2.476 1.74 0 .98-.754 1.742-2.154 1.742-1.077 0-1.723-.544-2.047-.98-.214-.326-.322-.652-.43-.979h1.185c0 .218.108.327.215.436.107.217.431.435.97.435.752 0 .969-.327.969-.653 0-.544-.862-.653-1.616-.87-.861-.11-1.615-.545-1.615-1.524 0-.87.754-1.633 2.046-1.633z" fill="#FFF" fill-rule="evenodd"/></svg>