<svg width="187" height="58" viewBox="0 0 187 58" xmlns="http://www.w3.org/2000/svg"><path d="M155.587 47.337a5.025 5.025 0 015.153 5.193 5.207 5.207 0 11-10.408-.089 5.05 5.05 0 015.255-5.104zm-95.255.202v3.563c0 .94-.035 1.88.009 2.818a2.472 2.472 0 003.468 2.36 2.031 2.031 0 001.554-2.086c.018-1.905.005-3.808.006-5.716v-.922h1.533v.777c0 1.878.007 3.757 0 5.635-.014 2.326-1.61 3.85-4.019 3.85-2.427 0-3.984-1.5-3.994-3.859-.01-2.115 0-4.231 0-6.419h-.005 1.448zM9.566 48.706l-.685 1.03c-2.54-1.453-4.585-1.346-5.822.282a4.237 4.237 0 00.339 5.385c1.442 1.443 3.617 1.36 5.687-.285v-.004l.727.983c-1.421 2.01-5.042 2.298-7.195.606a5.53 5.53 0 01-.574-7.778 5.495 5.495 0 017.523-.219zm42.978-1.023c1.174.141 1.742 1.161 1.9 2.315a2.949 2.949 0 01-1.083 2.86c-.198.145-.404.28-.617.403.777 1.424 1.54 2.826 2.31 4.241-1.32.371-1.545.279-2.13-.821-.265-.494-.53-.99-.793-1.487-.886-1.685-.885-1.685-2.921-1.512V57.61h-1.44v-9.97a40.782 40.782 0 014.774.044zm55.402-.205c.536.008.855.096 1.056.683 1.083 3.125 2.222 6.23 3.34 9.346-1.299.358-1.46.282-1.864-.84-.66-1.85-.681-1.91-2.533-1.912h-.191c-1.674 0-1.674 0-2.233 1.59-.036.1-.066.202-.1.303-.364 1.085-.454 1.168-1.685.914l-.153-.033.721-2.02c.872-2.437 1.765-4.87 2.6-7.321a.903.903 0 011.042-.71zm21.016-.064c1.655.006 3.311.114 4.955.323a4.163 4.163 0 013.419 4.022c.197 2.132-.197 4.067-2.24 5.165-.869.4-1.801.641-2.754.71-.962.06-1.926.07-2.89.032-.433.01-.628-.114-.62-.585.015-3.08.01-6.16.015-9.24.017-.096.04-.192.068-.286l.047-.141zm-84.777.147v1.212h-3.383v7.868c0 .518.164 1.05-.746 1.044-.85-.005-.795-.441-.792-1.01.012-2.307.005-4.613.005-6.92v-.948h-3.377v-1.246h8.293zm36.578.041v.005c.27 3.306.54 6.63.809 9.947-1.486.266-1.496.23-1.585-1.176a69.586 69.586 0 00-.586-5.828c-.676 1.535-1.364 3.066-2.02 4.61a.898.898 0 01-.933.671.92.92 0 01-1.004-.674c-.67-1.632-1.399-3.234-2.148-4.936l-.558 7.383h-1.489l.796-10.013c1.516-.246 1.515-.246 2.048 1.017.758 1.798 1.518 3.595 2.31 5.47.613-1.438 1.208-2.832 1.8-4.227.178-.419.345-.841.522-1.261.533-1.267.544-1.273 2.038-.988zm95.691-.033l.156.025-.633 2.397c-.631 2.389-1.256 4.752-1.854 7.123-.154.622-.543.566-.96.534-.383-.027-.865.214-1.032-.443-.591-2.332-1.22-4.65-1.87-7.1-.097.288-.176.481-.228.68-.553 2.094-1.114 4.184-1.641 6.283a.663.663 0 01-.855.587c-.427-.066-.985.246-1.166-.486-.792-3.185-1.605-6.372-2.408-9.563.077-.041.16-.072.245-.092 1.23-.082 1.237-.082 1.528 1.1.544 2.224 1.081 4.449 1.748 6.695.367-1.354.735-2.709 1.1-4.064.276-1.03.565-2.06.81-3.1.108-.459.284-.68.802-.664.481.015.762.078.9.633.599 2.401 1.257 4.787 2.025 7.195l1.111-4.401c.19-.752.37-1.506.563-2.255.324-1.253.339-1.299 1.66-1.084zm-150.273.712c1.52 2.23 3.046 4.457 4.659 6.817V47.54h1.408v10.024a1.554 1.554 0 01-1.996-.77c-1.43-2.217-2.968-4.365-4.553-6.672v7.457c-.265.03-.466.047-.672.077-.678.107-.933-.116-.92-.86.045-3.051.019-6.104.019-9.137 1.189-.357 1.448-.27 2.055.622zm91.873.132c1.383 2.2 2.876 4.328 4.33 6.48a.828.828 0 00.215.156v-7.503h1.487v.81c0 2.789.008 5.581-.012 8.372 0 .304-.137.854-.263.871-.517.064-1.104.265-1.506-.38-.582-.933-1.238-1.815-1.859-2.72-.996-1.456-1.988-2.914-3.038-4.453v7.546h-1.43v-10a1.61 1.61 0 012.076.821zm25.013-.868v8.82h4.423c.242 1.262.222 1.29-.896 1.29-1.476 0-2.949-.005-4.422 0-.367 0-.617-.046-.615-.51.015-3.135.016-6.271.025-9.408 0-.046.044-.094.093-.192h1.392zm-129.252-.01l.002.004h5.917v1.234H15.4v3.117h3.49v1.252h-3.477v3.19h4.585v1.322h-5.514c-.378 0-.68 0-.677-.53.014-3.162.008-6.322.008-9.59zm86.143.02v10.061h-1.405v-4.38H93.37v4.367h-1.395V47.556h1.37v4.301h5.17v-4.301h1.444zm86.446-.01v1.225h-4.345v3.109h3.505v1.267h-3.553c0 1.01-.028 1.92.029 2.82.01.143.396.366.614.374 1.07.038 2.144.015 3.217.019.257 0 .513.023.772.036v1.196h-6.067V47.544h5.828zm-30.798 1.138a3.706 3.706 0 00-3.772 3.817 3.828 3.828 0 003.73 3.917l.002.003a3.807 3.807 0 003.677-3.934v-.03a3.706 3.706 0 00-3.637-3.773zm-25.17.14l-.004-.003v7.522l.392.005c1.701.034 3.39.135 4.435-1.543a4.048 4.048 0 000-4.499c-1.141-1.808-3.016-1.507-4.824-1.482zm-22.485.403l-1.43 4.233h2.868l-1.438-4.233zm-58.676-.392v3.53a23.628 23.628 0 002.447-.142c.836-.133 1.244-.833 1.21-1.816.053-.79-.53-1.48-1.318-1.56-.765-.06-1.54-.012-2.34-.012zm60.01-16.69v.833H78.27l-.054-.833h31.07zM121.531 0c.223.188.417.408.575.653a4660.519 4660.519 0 017.357 16.655c.082.188.143.389.252.686-1.584 0-3.078.03-4.568-.032-.213-.009-.534-.432-.587-.707-.191-.963-.745-1.186-1.656-1.122a32.914 32.914 0 01-3.458.008c-.539-.019-.878.11-.97.676-.164 1.006-.752 1.297-1.747 1.204-1.084-.102-2.183-.024-3.433-.024 1.491-3.371 2.909-6.572 4.323-9.773 1.11-2.52 2.21-5.045 3.336-7.557.16-.249.353-.473.576-.667zM92.274.036c.156-.023.439.24.528.439 2.505 5.644 5 11.294 7.486 16.948.061.14.105.29.207.572v.002c-1.57 0-3.018.028-4.46-.028-.233-.009-.564-.34-.672-.597-.514-1.21-.49-1.22-1.8-1.22-1.1 0-2.201.032-3.3-.012-.567-.022-.937.123-1.033.71-.154.984-.734 1.249-1.688 1.166-1.088-.09-2.193-.02-3.428-.02.139-.351.234-.615.342-.869A8457.48 8457.48 0 0191.78.55c.095-.213.306-.484.494-.513zM67.362.683c3.022.419 4.723 2.835 4.617 5.99a5.612 5.612 0 01-4.942 5.715c-.845.123-1.704.156-2.698.24v5.368c-1.39 0-2.697.022-4.002-.03-.155-.006-.421-.412-.429-.639-.043-1.259-.02-2.52-.02-3.78V.554c.19-.037.384-.06.578-.07a58.854 58.854 0 016.896.198zM78.645.544v13.322h4.563v4.13c-2.905 0-5.717.007-8.528-.022-.155 0-.388-.291-.435-.482a4.187 4.187 0 01-.02-.962V.544h4.42zm34.13-.025a7.496 7.496 0 01-.33 1.253 2093.78 2093.78 0 01-5.23 11.105c-.135.286-.258.58-.438.988h5.543v4.072h-11.463c.07-.466.185-.925.341-1.37 1.749-3.76 3.524-7.508 5.29-11.26.109-.234.203-.479.337-.799h-5.363l.003-3.99h11.31zm8.568 7.714l-1.472 4.764h3.108l-1.476-4.75h-.004l-.156-.014zM92.189 7.98h-.003l-1.542 5.01h3.099c-.51-1.643-.999-3.211-1.554-5.01zm-27.8-3.628V8.97c1.14-.04 2.3.148 2.932-.985a2.565 2.565 0 00-.085-2.808c-.7-1.035-1.762-.91-2.847-.825z" fill="#FFF" fill-rule="evenodd"/></svg>