<svg width="187" height="39" viewBox="0 0 187 39" xmlns="http://www.w3.org/2000/svg"><path d="M14.43 0v.433c.004 10.616.002 21.231-.006 31.846-.002.227-.056.45-.154.655-.819 1.658-1.652 3.31-2.483 4.963l-.076.145-.084.151c-1.637-.809-3.251-1.608-4.874-2.407-2.149-1.056-4.296-2.12-6.451-3.167a.446.446 0 01-.29-.527c.263-2.891.521-5.784.773-8.677.165-1.889.318-3.777.486-5.665a.979.979 0 01.165-.482C5.694 11.598 9.954 5.93 14.216.265c.05-.066.104-.127.214-.265zm24.281.006c.533.705 1.018 1.347 1.502 1.99a2837.7 2837.7 0 0011.29 14.998c.29.462.432 1 .41 1.545.126 1.309.24 2.619.352 3.929l.169 1.964.483 5.666c.06.698.124 1.397.192 2.096a.325.325 0 01-.208.38c-3.75 1.846-7.499 3.693-11.247 5.543-.05.024-.097.041-.175.072-.133-.262-.27-.522-.4-.784a716.518 716.518 0 01-2.273-4.558 1.104 1.104 0 01-.103-.347l-.008-.12L38.696.31c.002-.077.01-.165.015-.305zm-22.443.37c.061.104.126.208.183.315 1.315 2.487 2.622 4.976 3.922 7.47.08.202.288.326.505.3 3.882-.01 7.763-.01 11.644 0 .206.022.4-.1.47-.295 1.223-2.458 2.45-4.916 3.676-7.373l.09-.172.09-.17.069.016v.32c-.004 10.408-.002 20.814.007 31.218a.577.577 0 01-.343.584 2260.772 2260.772 0 00-9.62 5.469.492.492 0 01-.56 0 3176.497 3176.497 0 00-9.9-5.505.474.474 0 01-.296-.477l.005-15.724L16.21.628V.403l.057-.028zm129.117 14.039c1.162 0 2.314.213 3.399.628a4.29 4.29 0 012.831 3.955c.078 1.313.05 2.626.055 3.944.006 1.917.006 3.836 0 5.754a2.191 2.191 0 00.686 1.682c.224.189.31.494.223.772l.004.002c-.095.007-.191.017-.286.017-1.305 0-2.61-.007-3.914.007a.372.372 0 01-.428-.297c-.11-.41-.217-.821-.334-1.26-.196.171-.396.352-.6.524a6.799 6.799 0 01-5.927 1.628 4.096 4.096 0 01-3.417-3.709 6.321 6.321 0 01.28-3.3 4.926 4.926 0 014.19-3.145 127.76 127.76 0 003.826-.587c.256-.053.505-.143.736-.268a1.85 1.85 0 00.927-2.086 1.23 1.23 0 00-.773-.879 4.459 4.459 0 00-3.363-.027 2.213 2.213 0 00-1.345 2.056c-.023.266-.092.349-.363.345-1.12-.014-2.24-.006-3.355-.007-.097 0-.192-.01-.287-.015-.044-2.133.867-4.506 3.467-5.303a11.497 11.497 0 013.768-.431zm24.632-5.407l.005 22.271h-1.468c-.822 0-1.645-.006-2.467.005-.214 0-.29-.065-.284-.281.012-.465 0-.935 0-1.44a13.3 13.3 0 01-.93.98 5.944 5.944 0 01-4.516 1.308c-1.962-.145-3.25-1.343-4.249-2.911a11.1 11.1 0 01-1.622-7.041 9.876 9.876 0 011.227-4.285 6.245 6.245 0 016.117-3.188 4.393 4.393 0 013.863 2.337l.102.093V9.008h4.222zm-91.975 1.568v4.45h2.36c0 .914.004 1.789-.012 2.663 0 .057-.16.155-.246.155-.57.014-1.14.007-1.71.007h-.387v9.631a.954.954 0 001.04 1.105c.424.024.85.005 1.314.005v1.577c0 .371.01.745-.008 1.118 0 .09-.09.243-.163.26a7.647 7.647 0 01-3.574.204 3.515 3.515 0 01-2.774-2.596 3.59 3.59 0 01-.07-.882c-.004-3.322-.004-6.644 0-9.966v-.447l-2.07-.004v-2.82H73.8v-4.46h4.242zm54.416 5.082a7.554 7.554 0 013.224 5.253c.104.98.152 1.963.146 2.947a2.608 2.608 0 01-.055.4l-.003.006h-10.803a3.366 3.366 0 002.157 3.96c1.25.486 2.67.203 3.639-.726a5.95 5.95 0 00.573-.792c.062-.082.166-.185.252-.185 1.313-.012 2.632-.007 3.947-.005l.121.04c-.033.105-.056.208-.096.303a7.885 7.885 0 01-6.433 4.894 7.161 7.161 0 01-5.053-.967 6.936 6.936 0 01-3.179-4.712 12.966 12.966 0 01.59-7.398 6.348 6.348 0 015.9-4.243 7.722 7.722 0 015.073 1.225zm53.469-.95v.36c0 .943.01 1.886-.008 2.829a.91.91 0 01-.188.524 2909.05 2909.05 0 01-7.479 8.918c-.076.09-.149.184-.273.337h8.197v3.489l-13.32.003c-.043 0-.086-.007-.16-.013-.006-.107-.017-.211-.017-.317 0-.965-.009-1.93.008-2.894a.834.834 0 01.184-.49c2.51-2.958 5.026-5.912 7.548-8.86.096-.114.188-.232.322-.398h-7.466v-3.488h12.652zm-78.33-5.703v7.61l.072.039c.068-.072.139-.141.202-.216a5.664 5.664 0 013.939-1.987 6.635 6.635 0 013.294.392 4.296 4.296 0 012.862 3.428c.029.217.041.436.038.655v11.942l.002.287h-4.22V20.658a2.393 2.393 0 00-1.706-2.45 3.245 3.245 0 00-4.073 2.56 6 6 0 00-.074 1.012c-.005 2.983-.005 5.966 0 8.948v.416h-4.52V9.005h4.185zm-8.239 5.698v16.444h-4.187V14.703h4.187zm-6.854-.292v4.307a8.011 8.011 0 00-2.627.118 3.167 3.167 0 00-2.404 3.179c-.005 2.905 0 5.811 0 8.716v.414h-4.202V14.703h4.183v3.039c1.07-2.136 2.622-3.367 5.05-3.33zm55.242 9.061c-.804.205-1.513.404-2.23.565-.704.155-1.427.233-2.12.426a1.935 1.935 0 00-1.6 2.22l.02.104a1.46 1.46 0 001.015 1.362c.363.12.739.191 1.12.216a3.098 3.098 0 003.523-2.589c.13-.762.22-1.531.272-2.304zm12.763-4.806l-.083.065a3.896 3.896 0 00-1.167 1.645 8.24 8.24 0 00-.422 3.945 5.26 5.26 0 001.065 2.818c.349.47.835.82 1.392 1a3.186 3.186 0 003.312-1.06 5.805 5.805 0 001.199-3.896v-.003c-.01-.204-.012-.468-.035-.73a5.833 5.833 0 00-1.168-3.19 2.924 2.924 0 00-4.093-.594zM34.43 11.523a.239.239 0 00-.154.099 5887.804 5887.804 0 00-4.94 6.607.85.85 0 00-.148.479c-.01 2.96-.012 5.92-.007 8.884l-.004.243.077.014 5.177-16.326zm-15.346-.059l-.046.03a57099.88 57099.88 0 015.15 16.348.154.154 0 00.078-.13c.008-3.048.014-6.095.018-9.142a.645.645 0 00-.14-.35c-.836-1.126-1.679-2.246-2.519-3.368l-2.54-3.388zm-9.509-.706l-.104.124a3872.73 3872.73 0 00-4.786 6.394.813.813 0 00-.148.386c-.071.642-.126 1.287-.182 1.932-.148 1.67-.295 3.339-.439 5.008-.057.65-.109 1.298-.162 1.946l.067.017c1.93-5.257 3.861-10.513 5.794-15.77l-.002-.003-.038-.034zm33.975.002l-.043.027L49.3 26.561v-.003l.073-.019c-.045-.49-.094-.98-.136-1.468-.205-2.39-.41-4.78-.61-7.17a1.416 1.416 0 00-.293-.778c-1.475-1.948-2.936-3.907-4.399-5.864-.126-.167-.256-.333-.386-.5zm84.683 7.206c-1.842 0-3.194 1.027-3.322 3.424h6.449c-.015-1.931-.936-3.424-3.127-3.424zM99.35 9.01v3.773h-4.183V9.01h4.183z" fill="#FFF" fill-rule="evenodd"/></svg>