<!DOCTYPE svg PUBLIC "-//W3C//DTD SVG 20010904//EN" "http://www.w3.org/TR/2001/REC-SVG-20010904/DTD/svg10.dtd">
<svg version="1.0" xmlns="http://www.w3.org/2000/svg" width="208px" height="233px" viewBox="0 0 2080 2330" preserveAspectRatio="xMidYMid meet">
<g id="layer102" fill="#fff" stroke="none">
 <path d="M880 2281 c-93 -18 -242 -75 -321 -124 -448 -275 -576 -850 -290 -1299 20 -32 38 -58 41 -58 6 0 80 125 80 135 0 3 -11 22 -25 43 -14 21 -38 74 -54 117 -111 304 -34 620 203 842 297 278 755 278 1052 0 60 -56 161 -183 153 -191 -2 -2 -44 -23 -94 -46 l-90 -41 -24 33 c-42 57 -129 136 -184 167 -96 55 -171 74 -287 74 -165 0 -289 -52 -406 -169 -99 -98 -164 -257 -164 -399 0 -57 23 -173 40 -205 11 -20 15 -17 58 52 45 70 47 77 52 168 5 74 13 109 34 155 91 199 305 298 508 235 122 -38 206 -112 265 -236 19 -41 38 -72 42 -70 3 2 26 13 51 24 75 34 384 183 389 187 2 3 -8 33 -23 67 -70 162 -219 329 -373 421 -45 26 -130 63 -190 83 -101 34 -118 37 -253 40 -80 1 -165 -1 -190 -5z"/>
 <path d="M890 1444 c-80 -130 -147 -242 -149 -248 -2 -6 -25 -42 -51 -81 -38 -57 -146 -233 -195 -317 -5 -10 -110 -179 -232 -377 -123 -198 -223 -362 -223 -365 0 -4 131 -5 292 -4 l292 3 227 370 228 370 53 11 c162 33 280 109 383 245 l20 26 93 -44 93 -43 -18 -31 c-97 -165 -269 -290 -477 -348 l-96 -26 164 -265 163 -265 293 -3 c232 -2 291 0 287 10 -3 7 -88 148 -190 313 l-184 300 57 65 c31 36 71 86 89 113 47 70 105 197 95 207 -10 10 -427 210 -438 210 -4 0 -20 -29 -35 -64 -16 -35 -34 -67 -40 -71 -6 -3 -9 -10 -6 -15 7 -11 -100 -102 -150 -128 -55 -28 -116 -43 -181 -44 l-54 -2 -233 -378 -232 -378 -119 0 c-100 0 -117 2 -113 15 10 23 732 1195 737 1195 3 0 33 -46 68 -102 98 -161 94 -158 140 -100 53 67 54 62 -80 281 -68 110 -125 201 -128 201 -3 0 -70 -107 -150 -236z m769 -1042 c62 -101 115 -190 118 -198 4 -12 -16 -14 -113 -14 l-119 0 -94 152 c-51 84 -89 154 -85 156 5 1 47 22 94 46 47 24 85 43 86 42 1 0 52 -84 113 -184z"/>
 </g>
</svg>