<?xml version="1.0" standalone="no"?>
<!DOCTYPE svg PUBLIC "-//W3C//DTD SVG 20010904//EN"
 "http://www.w3.org/TR/2001/REC-SVG-20010904/DTD/svg10.dtd">
<svg version="1.0" xmlns="http://www.w3.org/2000/svg"
 width="512.000000pt" height="512.000000pt" viewBox="0 0 512.000000 512.000000"
 preserveAspectRatio="xMidYMid meet">

<g transform="translate(0.000000,512.000000) scale(0.100000,-0.100000)"
fill="#000000" stroke="none">
<path d="M4126 5105 c-259 -54 -472 -221 -580 -457 -46 -99 -65 -175 -72 -288
-36 -558 493 -981 1031 -825 266 77 469 280 551 550 24 79 27 107 27 225 0
118 -3 146 -27 225 -81 269 -284 472 -551 550 -112 33 -274 42 -379 20z m175
-195 c15 -8 19 -21 19 -59 l0 -48 45 -6 c194 -27 335 -168 250 -252 -42 -43
-80 -35 -144 34 -61 65 -87 81 -125 81 l-26 0 0 -125 0 -124 43 -11 c216 -56
289 -129 288 -290 0 -148 -92 -240 -266 -271 l-65 -11 0 -54 c0 -44 -4 -55
-21 -64 -33 -18 -59 12 -59 71 l0 47 -67 12 c-37 6 -91 22 -120 36 -100 48
-168 158 -142 233 13 37 35 51 82 51 41 0 61 -19 96 -90 29 -61 59 -86 114
-96 l37 -6 0 139 0 140 -62 17 c-190 53 -276 160 -248 307 12 63 39 108 91
153 40 33 148 76 194 76 23 0 25 4 25 42 0 24 7 49 17 60 19 21 19 21 44 8z"/>
<path d="M4165 4644 c-46 -24 -64 -44 -71 -79 -8 -47 17 -89 69 -114 77 -37
77 -37 77 94 0 113 0 115 -22 115 -13 0 -36 -7 -53 -16z"/>
<path d="M4320 4100 l0 -132 37 7 c105 19 156 100 114 178 -15 28 -71 62 -118
72 l-33 7 0 -132z"/>
<path d="M2583 4035 c-84 -36 -83 -108 6 -274 34 -62 61 -117 61 -121 0 -4
-570 -301 -1267 -660 -698 -359 -1282 -664 -1300 -676 -89 -66 -48 -204 61
-204 35 0 239 102 1331 665 920 474 1291 661 1297 652 4 -6 34 -61 65 -121 62
-116 92 -146 148 -146 42 0 89 31 107 71 66 141 230 565 230 594 0 39 -22 79
-52 95 -19 10 -621 140 -645 140 -5 -1 -24 -7 -42 -15z"/>
<path d="M3862 3245 c-64 -20 -111 -61 -138 -120 l-24 -52 2 -1459 3 -1459 27
-41 c33 -51 66 -78 121 -99 36 -14 95 -15 443 -13 l401 3 49 30 c30 19 60 49
79 79 l30 49 3 1456 2 1455 -25 52 c-29 60 -78 101 -143 120 -64 20 -767 19
-830 -1z"/>
<path d="M2075 2321 c-69 -17 -125 -62 -161 -131 -18 -33 -19 -78 -19 -1025 0
-1102 -5 -1020 67 -1094 66 -68 52 -66 492 -69 449 -3 464 -1 528 66 79 82 73
-11 73 1087 0 1102 4 1037 -75 1109 -69 62 -98 66 -509 65 -201 -1 -379 -4
-396 -8z"/>
<path d="M225 1491 c-51 -23 -111 -89 -124 -138 -7 -25 -11 -235 -11 -603 0
-547 1 -566 21 -610 27 -60 54 -88 114 -116 50 -24 51 -24 445 -24 376 0 397
1 440 21 60 27 88 54 116 114 l24 50 0 565 c0 368 -4 578 -11 603 -13 49 -73
115 -124 138 -37 17 -75 19 -445 19 -370 0 -408 -2 -445 -19z"/>
</g>
</svg>
