<!DOCTYPE svg PUBLIC "-//W3C//DTD SVG 20010904//EN" "http://www.w3.org/TR/2001/REC-SVG-20010904/DTD/svg10.dtd">
<svg version="1.0" xmlns="http://www.w3.org/2000/svg" width="208px" height="233px" viewBox="0 0 2080 2330" preserveAspectRatio="xMidYMid meet">
<g id="layer101" fill="#939393" stroke="none">
 <path d="M903 2289 c-301 -44 -581 -254 -708 -532 -62 -138 -80 -224 -79 -392 1 -174 19 -256 84 -393 48 -101 87 -159 157 -231 29 -31 53 -59 53 -63 0 -6 -212 -354 -336 -552 -24 -38 -44 -73 -44 -78 0 -5 133 -7 296 -6 l297 3 231 375 231 374 68 13 c130 23 272 115 358 231 l24 33 88 -40 c48 -23 87 -44 87 -49 0 -17 -89 -129 -142 -179 -101 -95 -199 -148 -347 -187 -47 -13 -86 -27 -88 -32 -1 -5 71 -128 161 -274 l163 -265 296 -3 c164 -1 297 1 297 6 0 5 -20 40 -44 78 -110 176 -336 547 -336 553 0 4 18 25 41 46 53 52 119 144 158 223 62 122 74 102 -117 194 -201 97 -294 139 -297 136 0 -2 -14 -33 -29 -71 -16 -37 -31 -69 -35 -71 -4 -3 -25 26 -47 62 -22 37 -99 163 -170 279 -71 117 -131 213 -134 213 -4 -1 -94 -146 -317 -512 l-32 -53 -30 66 c-75 166 -38 353 96 480 29 27 79 62 110 77 53 24 69 27 173 27 110 0 118 -2 182 -33 85 -42 164 -126 204 -216 15 -36 32 -66 37 -66 14 0 457 212 457 219 0 3 -20 46 -45 96 -180 364 -572 571 -972 514z m312 -168 c44 -11 102 -29 128 -40 65 -28 177 -101 231 -152 44 -40 144 -175 135 -183 -2 -2 -43 -22 -91 -44 -88 -41 -88 -41 -100 -19 -21 40 -113 130 -171 168 -97 63 -173 84 -307 84 -94 0 -127 -4 -182 -23 -179 -62 -326 -219 -372 -399 -21 -79 -21 -224 0 -294 20 -67 65 -156 98 -196 l25 -29 -55 -90 c-30 -49 -58 -88 -62 -86 -23 10 -99 121 -142 207 -62 125 -81 206 -81 343 1 311 175 579 461 708 140 64 332 81 485 45z m-60 -908 c61 -98 111 -182 113 -189 6 -24 -144 -74 -223 -74 l-50 0 -230 -375 -230 -375 -112 0 c-62 0 -113 3 -113 6 0 9 724 1184 730 1184 3 0 55 -80 115 -177z m500 -814 c61 -99 112 -184 113 -189 2 -6 -42 -10 -111 -10 l-115 0 -24 43 c-14 23 -53 89 -89 146 -35 58 -59 106 -53 108 5 2 44 21 85 42 40 22 76 40 79 40 3 0 55 -81 115 -180z"/>
 </g>
<g id="layer102" fill="#fcfcfc" stroke="none">
 <path d="M880 2281 c-93 -18 -242 -75 -321 -124 -448 -275 -576 -850 -290 -1299 20 -32 38 -58 41 -58 6 0 80 125 80 135 0 3 -11 22 -25 43 -14 21 -38 74 -54 117 -111 304 -34 620 203 842 297 278 755 278 1052 0 60 -56 161 -183 153 -191 -2 -2 -44 -23 -94 -46 l-90 -41 -24 33 c-42 57 -129 136 -184 167 -96 55 -171 74 -287 74 -165 0 -289 -52 -406 -169 -99 -98 -164 -257 -164 -399 0 -57 23 -173 40 -205 11 -20 15 -17 58 52 45 70 47 77 52 168 5 74 13 109 34 155 91 199 305 298 508 235 122 -38 206 -112 265 -236 19 -41 38 -72 42 -70 3 2 26 13 51 24 75 34 384 183 389 187 2 3 -8 33 -23 67 -70 162 -219 329 -373 421 -45 26 -130 63 -190 83 -101 34 -118 37 -253 40 -80 1 -165 -1 -190 -5z"/>
 <path d="M890 1444 c-80 -130 -147 -242 -149 -248 -2 -6 -25 -42 -51 -81 -38 -57 -146 -233 -195 -317 -5 -10 -110 -179 -232 -377 -123 -198 -223 -362 -223 -365 0 -4 131 -5 292 -4 l292 3 227 370 228 370 53 11 c162 33 280 109 383 245 l20 26 93 -44 93 -43 -18 -31 c-97 -165 -269 -290 -477 -348 l-96 -26 164 -265 163 -265 293 -3 c232 -2 291 0 287 10 -3 7 -88 148 -190 313 l-184 300 57 65 c31 36 71 86 89 113 47 70 105 197 95 207 -10 10 -427 210 -438 210 -4 0 -20 -29 -35 -64 -16 -35 -34 -67 -40 -71 -6 -3 -9 -10 -6 -15 7 -11 -100 -102 -150 -128 -55 -28 -116 -43 -181 -44 l-54 -2 -233 -378 -232 -378 -119 0 c-100 0 -117 2 -113 15 10 23 732 1195 737 1195 3 0 33 -46 68 -102 98 -161 94 -158 140 -100 53 67 54 62 -80 281 -68 110 -125 201 -128 201 -3 0 -70 -107 -150 -236z m769 -1042 c62 -101 115 -190 118 -198 4 -12 -16 -14 -113 -14 l-119 0 -94 152 c-51 84 -89 154 -85 156 5 1 47 22 94 46 47 24 85 43 86 42 1 0 52 -84 113 -184z"/>
 </g>

</svg>